<svg xmlns="http://www.w3.org/2000/svg" width="1024" height="1024" viewBox="0 0 1024 1024">
  <defs>
    <linearGradient id="bg" x1="0" x2="1" y1="0" y2="1">
      <stop offset="0" stop-color="#3a120c"/>
      <stop offset="0.52" stop-color="#13090b"/>
      <stop offset="1" stop-color="#060405"/>
    </linearGradient>
    <radialGradient id="glow" cx="50%" cy="34%" r="62%">
      <stop offset="0" stop-color="#ff5c2e" stop-opacity="0.85"/>
      <stop offset="0.46" stop-color="#ff5c2e" stop-opacity="0.18"/>
      <stop offset="1" stop-color="#ff5c2e" stop-opacity="0"/>
    </radialGradient>
    <filter id="soft">
      <feGaussianBlur stdDeviation="12"/>
    </filter>
  </defs>
  <rect width="1024" height="1024" rx="214" fill="url(#bg)"/>
  <rect width="1024" height="1024" rx="214" fill="url(#glow)"/>
  <circle cx="512" cy="468" r="320" fill="#ff5c2e" opacity="0.16" filter="url(#soft)"/>
  <g transform="translate(208 206)">
    <g>
      <rect x="0" y="0" width="116" height="54" rx="12" fill="#ff5c2e"/>
      <rect x="134" y="0" width="116" height="54" rx="12" fill="#ffd05a"/>
      <rect x="268" y="0" width="116" height="54" rx="12" fill="#ff5c2e"/>
      <rect x="402" y="0" width="116" height="54" rx="12" fill="#ffd05a"/>
      <rect x="67" y="74" width="116" height="54" rx="12" fill="#ffd05a"/>
      <rect x="201" y="74" width="116" height="54" rx="12" fill="#ff5c2e"/>
      <rect x="335" y="74" width="116" height="54" rx="12" fill="#ffd05a"/>
      <rect x="0" y="148" width="116" height="54" rx="12" fill="#ff5c2e"/>
      <rect x="134" y="148" width="116" height="54" rx="12" fill="#ffd05a"/>
      <rect x="268" y="148" width="116" height="54" rx="12" fill="#ff5c2e"/>
      <rect x="402" y="148" width="116" height="54" rx="12" fill="#ffd05a"/>
    </g>
    <circle cx="259" cy="336" r="42" fill="#f4dfb8" stroke="#ffd05a" stroke-width="12"/>
    <rect x="110" y="484" width="300" height="44" rx="22" fill="#f4dfb8" stroke="#ff5c2e" stroke-width="10"/>
  </g>
  <text x="512" y="842" text-anchor="middle" fill="#f4dfb8" font-family="Avenir Next, Inter, Arial" font-size="86" font-weight="900">BF</text>
</svg>
